<?xml version="1.0" encoding="UTF-8"?>
<svg width="51px" height="51px" viewBox="0 0 51 51" version="1.1" xmlns="http://www.w3.org/2000/svg" xmlns:xlink="http://www.w3.org/1999/xlink">
    <!-- Generator: Sketch 40.2 (33826) - http://www.bohemiancoding.com/sketch -->
    <title>noun_613133_cc</title>
    <desc>Created with Sketch.</desc>
    <defs></defs>
    <g id="Page-1" stroke="none" stroke-width="1" fill="none" fill-rule="evenodd">
        <g id="noun_613133_cc" fill="#000000">
            <g id="Group">
                <g id="Shape">
                    <path d="M17.209,45.765 C15.109,47.866 11.691,47.866 9.59,45.766 L5.469,41.643 C3.369,39.543 3.369,36.125 5.469,34.025 L12.244,27.25 L9.84,24.846 L3.065,31.622 C-0.359,35.049 -0.359,40.623 3.065,44.048 L7.186,48.171 C8.899,49.883 11.151,50.739 13.401,50.739 C15.651,50.739 17.901,49.882 19.614,48.17 L33.163,34.618 C34.825,32.959 35.739,30.753 35.739,28.405 C35.739,26.059 34.825,23.852 33.165,22.192 L29.042,18.072 L26.638,20.476 L30.761,24.596 C31.779,25.614 32.339,26.967 32.339,28.405 C32.339,29.844 31.778,31.196 30.761,32.214 L17.209,45.765 L17.209,45.765 Z"></path>
                    <path d="M44.256,2.858 C42.596,1.198 40.391,0.283 38.043,0.283 L38.041,0.283 C35.693,0.284 33.486,1.198 31.828,2.857 L18.279,16.408 C16.619,18.066 15.703,20.273 15.703,22.621 C15.703,24.969 16.617,27.176 18.277,28.836 L22.398,32.957 L24.802,30.553 L20.681,26.433 C19.663,25.414 19.103,24.061 19.103,22.621 C19.103,21.183 19.664,19.83 20.683,18.812 L34.232,5.261 C35.25,4.243 36.601,3.683 38.041,3.683 C39.481,3.683 40.834,4.244 41.852,5.261 L45.973,9.382 C48.073,11.482 48.073,14.9 45.973,16.999 L39.198,23.776 L41.602,26.18 L48.377,19.403 C51.803,15.976 51.803,10.402 48.377,6.977 L44.256,2.858 L44.256,2.858 Z"></path>
                </g>
            </g>
        </g>
    </g>
</svg>